<mxfile host="app.diagrams.net" modified="2023-09-22T12:01:15.202Z" agent="Mozilla/5.0 (Windows NT 10.0; Win64; x64) AppleWebKit/537.36 (KHTML, like Gecko) Chrome/100.0.4896.75 Safari/537.36" etag="p82QR5xe1Zkndld_L9z-" version="21.7.5" type="github">
  <diagram name="第 1 页" id="zoFiYugOIlxTZy8CV-Bl">
    <mxGraphModel dx="1436" dy="884" grid="1" gridSize="10" guides="1" tooltips="1" connect="1" arrows="1" fold="1" page="1" pageScale="1" pageWidth="827" pageHeight="1169" math="0" shadow="0">
      <root>
        <mxCell id="0" />
        <mxCell id="1" parent="0" />
        <mxCell id="v_qKELttMYH3f2mZd83b-1" value="" style="edgeStyle=orthogonalEdgeStyle;rounded=0;orthogonalLoop=1;jettySize=auto;html=1;" edge="1" parent="1" source="v_qKELttMYH3f2mZd83b-2" target="v_qKELttMYH3f2mZd83b-4">
          <mxGeometry relative="1" as="geometry" />
        </mxCell>
        <mxCell id="v_qKELttMYH3f2mZd83b-2" value="REP" style="rounded=1;whiteSpace=wrap;html=1;fillColor=#fad7ac;strokeColor=#b46504;" vertex="1" parent="1">
          <mxGeometry x="486" y="855" width="40" height="20" as="geometry" />
        </mxCell>
        <mxCell id="v_qKELttMYH3f2mZd83b-3" value="" style="edgeStyle=orthogonalEdgeStyle;rounded=0;orthogonalLoop=1;jettySize=auto;html=1;" edge="1" parent="1" source="v_qKELttMYH3f2mZd83b-4" target="v_qKELttMYH3f2mZd83b-5">
          <mxGeometry relative="1" as="geometry" />
        </mxCell>
        <mxCell id="v_qKELttMYH3f2mZd83b-4" value="Conv" style="rounded=1;whiteSpace=wrap;html=1;fillColor=#eeeeee;strokeColor=#36393d;" vertex="1" parent="1">
          <mxGeometry x="556" y="855" width="40" height="20" as="geometry" />
        </mxCell>
        <mxCell id="v_qKELttMYH3f2mZd83b-5" value="" style="shape=cube;whiteSpace=wrap;html=1;boundedLbl=1;backgroundOutline=1;darkOpacity=0.05;darkOpacity2=0.1;size=10;fontStyle=1;fillColor=#dae8fc;strokeColor=#6c8ebf;" vertex="1" parent="1">
          <mxGeometry x="626" y="845" width="40" height="40" as="geometry" />
        </mxCell>
        <mxCell id="v_qKELttMYH3f2mZd83b-6" value="" style="edgeStyle=orthogonalEdgeStyle;rounded=0;orthogonalLoop=1;jettySize=auto;html=1;" edge="1" parent="1" source="v_qKELttMYH3f2mZd83b-8" target="v_qKELttMYH3f2mZd83b-2">
          <mxGeometry relative="1" as="geometry" />
        </mxCell>
        <mxCell id="v_qKELttMYH3f2mZd83b-7" style="edgeStyle=orthogonalEdgeStyle;rounded=0;orthogonalLoop=1;jettySize=auto;html=1;exitX=0.5;exitY=0;exitDx=0;exitDy=0;" edge="1" parent="1" source="v_qKELttMYH3f2mZd83b-8" target="v_qKELttMYH3f2mZd83b-10">
          <mxGeometry relative="1" as="geometry" />
        </mxCell>
        <mxCell id="v_qKELttMYH3f2mZd83b-8" value="C3" style="rounded=1;whiteSpace=wrap;html=1;fillColor=#dae8fc;strokeColor=#6c8ebf;" vertex="1" parent="1">
          <mxGeometry x="330" y="855" width="60" height="20" as="geometry" />
        </mxCell>
        <mxCell id="v_qKELttMYH3f2mZd83b-9" value="" style="edgeStyle=orthogonalEdgeStyle;rounded=0;orthogonalLoop=1;jettySize=auto;html=1;" edge="1" parent="1" source="v_qKELttMYH3f2mZd83b-10" target="v_qKELttMYH3f2mZd83b-13">
          <mxGeometry relative="1" as="geometry" />
        </mxCell>
        <mxCell id="v_qKELttMYH3f2mZd83b-10" value="MPConv" style="whiteSpace=wrap;html=1;rounded=1;fillColor=#f8cecc;strokeColor=#b85450;" vertex="1" parent="1">
          <mxGeometry x="300" y="670" width="120" height="20" as="geometry" />
        </mxCell>
        <mxCell id="v_qKELttMYH3f2mZd83b-11" style="edgeStyle=orthogonalEdgeStyle;rounded=0;orthogonalLoop=1;jettySize=auto;html=1;exitX=0.5;exitY=0;exitDx=0;exitDy=0;entryX=0.5;entryY=1;entryDx=0;entryDy=0;" edge="1" parent="1" source="v_qKELttMYH3f2mZd83b-13" target="v_qKELttMYH3f2mZd83b-15">
          <mxGeometry relative="1" as="geometry" />
        </mxCell>
        <mxCell id="v_qKELttMYH3f2mZd83b-12" value="" style="edgeStyle=orthogonalEdgeStyle;rounded=0;orthogonalLoop=1;jettySize=auto;html=1;" edge="1" parent="1" source="v_qKELttMYH3f2mZd83b-13" target="v_qKELttMYH3f2mZd83b-23">
          <mxGeometry relative="1" as="geometry" />
        </mxCell>
        <mxCell id="v_qKELttMYH3f2mZd83b-13" value="C3" style="rounded=1;whiteSpace=wrap;html=1;fillColor=#dae8fc;strokeColor=#6c8ebf;" vertex="1" parent="1">
          <mxGeometry x="330" y="565" width="60" height="20" as="geometry" />
        </mxCell>
        <mxCell id="v_qKELttMYH3f2mZd83b-14" value="" style="edgeStyle=orthogonalEdgeStyle;rounded=0;orthogonalLoop=1;jettySize=auto;html=1;" edge="1" parent="1" source="v_qKELttMYH3f2mZd83b-15" target="v_qKELttMYH3f2mZd83b-19">
          <mxGeometry relative="1" as="geometry" />
        </mxCell>
        <mxCell id="v_qKELttMYH3f2mZd83b-15" value="MPConv" style="whiteSpace=wrap;html=1;rounded=1;fillColor=#f8cecc;strokeColor=#b85450;" vertex="1" parent="1">
          <mxGeometry x="300" y="470" width="120" height="20" as="geometry" />
        </mxCell>
        <mxCell id="v_qKELttMYH3f2mZd83b-16" style="edgeStyle=orthogonalEdgeStyle;rounded=0;orthogonalLoop=1;jettySize=auto;html=1;exitX=0.5;exitY=1;exitDx=0;exitDy=0;" edge="1" parent="1" source="v_qKELttMYH3f2mZd83b-15" target="v_qKELttMYH3f2mZd83b-15">
          <mxGeometry relative="1" as="geometry" />
        </mxCell>
        <mxCell id="v_qKELttMYH3f2mZd83b-17" style="edgeStyle=orthogonalEdgeStyle;rounded=0;orthogonalLoop=1;jettySize=auto;html=1;exitX=0.5;exitY=0;exitDx=0;exitDy=0;entryX=0.5;entryY=1;entryDx=0;entryDy=0;" edge="1" parent="1" source="v_qKELttMYH3f2mZd83b-19" target="v_qKELttMYH3f2mZd83b-21">
          <mxGeometry relative="1" as="geometry" />
        </mxCell>
        <mxCell id="v_qKELttMYH3f2mZd83b-18" style="edgeStyle=orthogonalEdgeStyle;rounded=0;orthogonalLoop=1;jettySize=auto;html=1;exitX=1;exitY=0.5;exitDx=0;exitDy=0;entryX=0;entryY=0.5;entryDx=0;entryDy=0;" edge="1" parent="1" source="v_qKELttMYH3f2mZd83b-19" target="v_qKELttMYH3f2mZd83b-29">
          <mxGeometry relative="1" as="geometry" />
        </mxCell>
        <mxCell id="v_qKELttMYH3f2mZd83b-19" value="Catconv" style="rounded=1;whiteSpace=wrap;html=1;fillColor=#cdeb8b;strokeColor=#36393d;" vertex="1" parent="1">
          <mxGeometry x="300" y="360" width="120" height="20" as="geometry" />
        </mxCell>
        <mxCell id="v_qKELttMYH3f2mZd83b-20" value="" style="edgeStyle=orthogonalEdgeStyle;rounded=0;orthogonalLoop=1;jettySize=auto;html=1;" edge="1" parent="1" source="v_qKELttMYH3f2mZd83b-21" target="v_qKELttMYH3f2mZd83b-35">
          <mxGeometry relative="1" as="geometry" />
        </mxCell>
        <mxCell id="v_qKELttMYH3f2mZd83b-21" value="MPConv" style="whiteSpace=wrap;html=1;rounded=1;fillColor=#f8cecc;strokeColor=#b85450;" vertex="1" parent="1">
          <mxGeometry x="300" y="290" width="120" height="20" as="geometry" />
        </mxCell>
        <mxCell id="v_qKELttMYH3f2mZd83b-22" value="" style="edgeStyle=orthogonalEdgeStyle;rounded=0;orthogonalLoop=1;jettySize=auto;html=1;" edge="1" parent="1" source="v_qKELttMYH3f2mZd83b-23" target="v_qKELttMYH3f2mZd83b-25">
          <mxGeometry relative="1" as="geometry" />
        </mxCell>
        <mxCell id="v_qKELttMYH3f2mZd83b-23" value="REP" style="rounded=1;whiteSpace=wrap;html=1;fillColor=#fad7ac;strokeColor=#b46504;" vertex="1" parent="1">
          <mxGeometry x="481.5" y="565" width="40" height="20" as="geometry" />
        </mxCell>
        <mxCell id="v_qKELttMYH3f2mZd83b-24" value="" style="edgeStyle=orthogonalEdgeStyle;rounded=0;orthogonalLoop=1;jettySize=auto;html=1;" edge="1" parent="1" source="v_qKELttMYH3f2mZd83b-25" target="v_qKELttMYH3f2mZd83b-26">
          <mxGeometry relative="1" as="geometry" />
        </mxCell>
        <mxCell id="v_qKELttMYH3f2mZd83b-25" value="Conv" style="rounded=1;whiteSpace=wrap;html=1;fillColor=#eeeeee;strokeColor=#36393d;" vertex="1" parent="1">
          <mxGeometry x="551.5" y="565" width="40" height="20" as="geometry" />
        </mxCell>
        <mxCell id="v_qKELttMYH3f2mZd83b-26" value="" style="shape=cube;whiteSpace=wrap;html=1;boundedLbl=1;backgroundOutline=1;darkOpacity=0.05;darkOpacity2=0.1;size=10;fillColor=#d5e8d4;strokeColor=#82b366;" vertex="1" parent="1">
          <mxGeometry x="621.5" y="555" width="40" height="40" as="geometry" />
        </mxCell>
        <mxCell id="v_qKELttMYH3f2mZd83b-27" value="80*80*85" style="text;html=1;strokeColor=none;fillColor=none;align=center;verticalAlign=middle;whiteSpace=wrap;rounded=0;strokeWidth=1;fontSize=12;" vertex="1" parent="1">
          <mxGeometry x="614.5" y="595" width="56" height="30" as="geometry" />
        </mxCell>
        <mxCell id="v_qKELttMYH3f2mZd83b-28" value="" style="edgeStyle=orthogonalEdgeStyle;rounded=0;orthogonalLoop=1;jettySize=auto;html=1;" edge="1" parent="1" source="v_qKELttMYH3f2mZd83b-29" target="v_qKELttMYH3f2mZd83b-31">
          <mxGeometry relative="1" as="geometry" />
        </mxCell>
        <mxCell id="v_qKELttMYH3f2mZd83b-29" value="REP" style="rounded=1;whiteSpace=wrap;html=1;fillColor=#fad7ac;strokeColor=#b46504;" vertex="1" parent="1">
          <mxGeometry x="476" y="360" width="40" height="20" as="geometry" />
        </mxCell>
        <mxCell id="v_qKELttMYH3f2mZd83b-30" value="" style="edgeStyle=orthogonalEdgeStyle;rounded=0;orthogonalLoop=1;jettySize=auto;html=1;" edge="1" parent="1" source="v_qKELttMYH3f2mZd83b-31" target="v_qKELttMYH3f2mZd83b-32">
          <mxGeometry relative="1" as="geometry" />
        </mxCell>
        <mxCell id="v_qKELttMYH3f2mZd83b-31" value="Conv" style="rounded=1;whiteSpace=wrap;html=1;fillColor=#eeeeee;strokeColor=#36393d;" vertex="1" parent="1">
          <mxGeometry x="547" y="360" width="40" height="20" as="geometry" />
        </mxCell>
        <mxCell id="v_qKELttMYH3f2mZd83b-32" value="" style="shape=cube;whiteSpace=wrap;html=1;boundedLbl=1;backgroundOutline=1;darkOpacity=0.05;darkOpacity2=0.1;size=10;fillColor=#f8cecc;strokeColor=#b85450;" vertex="1" parent="1">
          <mxGeometry x="618" y="350" width="40" height="40" as="geometry" />
        </mxCell>
        <mxCell id="v_qKELttMYH3f2mZd83b-33" value="40*40*85" style="text;html=1;strokeColor=none;fillColor=none;align=center;verticalAlign=middle;whiteSpace=wrap;rounded=0;strokeWidth=1;fontSize=12;" vertex="1" parent="1">
          <mxGeometry x="613.5" y="395" width="56" height="30" as="geometry" />
        </mxCell>
        <mxCell id="v_qKELttMYH3f2mZd83b-34" value="" style="edgeStyle=orthogonalEdgeStyle;rounded=0;orthogonalLoop=1;jettySize=auto;html=1;" edge="1" parent="1" source="v_qKELttMYH3f2mZd83b-35" target="v_qKELttMYH3f2mZd83b-37">
          <mxGeometry relative="1" as="geometry" />
        </mxCell>
        <mxCell id="v_qKELttMYH3f2mZd83b-35" value="CS3TR" style="rounded=1;whiteSpace=wrap;html=1;fillColor=#ffcd28;gradientColor=#ffa500;strokeColor=#d79b00;" vertex="1" parent="1">
          <mxGeometry x="325" y="240" width="70" height="20" as="geometry" />
        </mxCell>
        <mxCell id="v_qKELttMYH3f2mZd83b-36" style="edgeStyle=orthogonalEdgeStyle;rounded=0;orthogonalLoop=1;jettySize=auto;html=1;exitX=1;exitY=0.5;exitDx=0;exitDy=0;entryX=0;entryY=0.5;entryDx=0;entryDy=0;" edge="1" parent="1" source="v_qKELttMYH3f2mZd83b-37" target="v_qKELttMYH3f2mZd83b-39">
          <mxGeometry relative="1" as="geometry" />
        </mxCell>
        <mxCell id="v_qKELttMYH3f2mZd83b-37" value="Conv" style="rounded=1;whiteSpace=wrap;html=1;fillColor=#eeeeee;strokeColor=#36393d;" vertex="1" parent="1">
          <mxGeometry x="340" y="190" width="40" height="20" as="geometry" />
        </mxCell>
        <mxCell id="v_qKELttMYH3f2mZd83b-38" value="" style="edgeStyle=orthogonalEdgeStyle;rounded=0;orthogonalLoop=1;jettySize=auto;html=1;" edge="1" parent="1" source="v_qKELttMYH3f2mZd83b-39" target="v_qKELttMYH3f2mZd83b-41">
          <mxGeometry relative="1" as="geometry" />
        </mxCell>
        <mxCell id="v_qKELttMYH3f2mZd83b-39" value="REP" style="rounded=1;whiteSpace=wrap;html=1;fillColor=#fad7ac;strokeColor=#b46504;" vertex="1" parent="1">
          <mxGeometry x="476" y="190" width="40" height="20" as="geometry" />
        </mxCell>
        <mxCell id="v_qKELttMYH3f2mZd83b-40" value="" style="edgeStyle=orthogonalEdgeStyle;rounded=0;orthogonalLoop=1;jettySize=auto;html=1;" edge="1" parent="1" source="v_qKELttMYH3f2mZd83b-41" target="v_qKELttMYH3f2mZd83b-42">
          <mxGeometry relative="1" as="geometry" />
        </mxCell>
        <mxCell id="v_qKELttMYH3f2mZd83b-41" value="Conv" style="rounded=1;whiteSpace=wrap;html=1;fillColor=#eeeeee;strokeColor=#36393d;" vertex="1" parent="1">
          <mxGeometry x="543.5" y="190" width="40" height="20" as="geometry" />
        </mxCell>
        <mxCell id="v_qKELttMYH3f2mZd83b-42" value="" style="shape=cube;whiteSpace=wrap;html=1;boundedLbl=1;backgroundOutline=1;darkOpacity=0.05;darkOpacity2=0.1;size=10;fillColor=#e1d5e7;strokeColor=#9673a6;" vertex="1" parent="1">
          <mxGeometry x="614.5" y="180" width="40" height="40" as="geometry" />
        </mxCell>
        <mxCell id="v_qKELttMYH3f2mZd83b-43" value="20*20*85" style="text;html=1;strokeColor=none;fillColor=none;align=center;verticalAlign=middle;whiteSpace=wrap;rounded=0;strokeWidth=1;fontSize=12;" vertex="1" parent="1">
          <mxGeometry x="610" y="225" width="56" height="30" as="geometry" />
        </mxCell>
        <mxCell id="v_qKELttMYH3f2mZd83b-44" value="160*160*64" style="text;html=1;strokeColor=none;fillColor=none;align=center;verticalAlign=middle;whiteSpace=wrap;rounded=0;strokeWidth=1;fontSize=12;" vertex="1" parent="1">
          <mxGeometry x="420" y="840" width="56" height="30" as="geometry" />
        </mxCell>
        <mxCell id="v_qKELttMYH3f2mZd83b-45" value="80*80*128" style="text;html=1;strokeColor=none;fillColor=none;align=center;verticalAlign=middle;whiteSpace=wrap;rounded=0;strokeWidth=1;fontSize=12;" vertex="1" parent="1">
          <mxGeometry x="404" y="550" width="56" height="30" as="geometry" />
        </mxCell>
        <mxCell id="v_qKELttMYH3f2mZd83b-46" value="40*40*256" style="text;html=1;strokeColor=none;fillColor=none;align=center;verticalAlign=middle;whiteSpace=wrap;rounded=0;strokeWidth=1;fontSize=12;" vertex="1" parent="1">
          <mxGeometry x="420" y="340" width="56" height="30" as="geometry" />
        </mxCell>
        <mxCell id="v_qKELttMYH3f2mZd83b-47" value="20*20*512" style="text;html=1;strokeColor=none;fillColor=none;align=center;verticalAlign=middle;whiteSpace=wrap;rounded=0;strokeWidth=1;fontSize=12;" vertex="1" parent="1">
          <mxGeometry x="420" y="167" width="56" height="30" as="geometry" />
        </mxCell>
        <mxCell id="v_qKELttMYH3f2mZd83b-48" value="160*160*64" style="text;html=1;strokeColor=none;fillColor=none;align=center;verticalAlign=middle;whiteSpace=wrap;rounded=0;strokeWidth=1;fontSize=12;" vertex="1" parent="1">
          <mxGeometry x="373" y="820" width="56" height="30" as="geometry" />
        </mxCell>
        <mxCell id="v_qKELttMYH3f2mZd83b-49" value="80*80*64" style="text;html=1;strokeColor=none;fillColor=none;align=center;verticalAlign=middle;whiteSpace=wrap;rounded=0;strokeWidth=1;fontSize=12;" vertex="1" parent="1">
          <mxGeometry x="373" y="640" width="56" height="30" as="geometry" />
        </mxCell>
        <mxCell id="v_qKELttMYH3f2mZd83b-51" value="80*80*128" style="text;html=1;strokeColor=none;fillColor=none;align=center;verticalAlign=middle;whiteSpace=wrap;rounded=0;strokeWidth=1;fontSize=12;" vertex="1" parent="1">
          <mxGeometry x="373" y="525" width="56" height="30" as="geometry" />
        </mxCell>
        <mxCell id="v_qKELttMYH3f2mZd83b-52" value="40*40*128" style="text;html=1;strokeColor=none;fillColor=none;align=center;verticalAlign=middle;whiteSpace=wrap;rounded=0;strokeWidth=1;fontSize=12;" vertex="1" parent="1">
          <mxGeometry x="373" y="445" width="56" height="30" as="geometry" />
        </mxCell>
        <mxCell id="v_qKELttMYH3f2mZd83b-53" value="40*40*256" style="text;html=1;strokeColor=none;fillColor=none;align=center;verticalAlign=middle;whiteSpace=wrap;rounded=0;strokeWidth=1;fontSize=12;" vertex="1" parent="1">
          <mxGeometry x="373" y="320" width="56" height="30" as="geometry" />
        </mxCell>
        <mxCell id="v_qKELttMYH3f2mZd83b-54" value="20*20*256" style="text;html=1;strokeColor=none;fillColor=none;align=center;verticalAlign=middle;whiteSpace=wrap;rounded=0;strokeWidth=1;fontSize=12;" vertex="1" parent="1">
          <mxGeometry x="373" y="260" width="56" height="30" as="geometry" />
        </mxCell>
        <mxCell id="v_qKELttMYH3f2mZd83b-55" value="20*20*1024" style="text;html=1;strokeColor=none;fillColor=none;align=center;verticalAlign=middle;whiteSpace=wrap;rounded=0;strokeWidth=1;fontSize=12;" vertex="1" parent="1">
          <mxGeometry x="373" y="215" width="56" height="30" as="geometry" />
        </mxCell>
        <mxCell id="v_qKELttMYH3f2mZd83b-56" style="edgeStyle=orthogonalEdgeStyle;rounded=0;orthogonalLoop=1;jettySize=auto;html=1;entryX=0;entryY=0.5;entryDx=0;entryDy=0;" edge="1" parent="1" target="v_qKELttMYH3f2mZd83b-21">
          <mxGeometry relative="1" as="geometry">
            <mxPoint x="160" y="300" as="sourcePoint" />
            <mxPoint x="270" y="270" as="targetPoint" />
          </mxGeometry>
        </mxCell>
        <mxCell id="v_qKELttMYH3f2mZd83b-57" style="edgeStyle=orthogonalEdgeStyle;rounded=0;orthogonalLoop=1;jettySize=auto;html=1;entryX=0;entryY=0.5;entryDx=0;entryDy=0;" edge="1" parent="1">
          <mxGeometry relative="1" as="geometry">
            <mxPoint x="160" y="479.5" as="sourcePoint" />
            <mxPoint x="300" y="479.5" as="targetPoint" />
          </mxGeometry>
        </mxCell>
        <mxCell id="v_qKELttMYH3f2mZd83b-58" style="edgeStyle=orthogonalEdgeStyle;rounded=0;orthogonalLoop=1;jettySize=auto;html=1;entryX=0;entryY=0.5;entryDx=0;entryDy=0;" edge="1" parent="1">
          <mxGeometry relative="1" as="geometry">
            <mxPoint x="160" y="679.5" as="sourcePoint" />
            <mxPoint x="300" y="679.5" as="targetPoint" />
          </mxGeometry>
        </mxCell>
        <mxCell id="v_qKELttMYH3f2mZd83b-59" value="160*160*128" style="text;html=1;strokeColor=none;fillColor=none;align=center;verticalAlign=middle;whiteSpace=wrap;rounded=0;strokeWidth=1;fontSize=12;" vertex="1" parent="1">
          <mxGeometry x="200" y="840" width="56" height="30" as="geometry" />
        </mxCell>
        <mxCell id="v_qKELttMYH3f2mZd83b-60" value="80*80*128" style="text;html=1;strokeColor=none;fillColor=none;align=center;verticalAlign=middle;whiteSpace=wrap;rounded=0;strokeWidth=1;fontSize=12;" vertex="1" parent="1">
          <mxGeometry x="200" y="650" width="56" height="30" as="geometry" />
        </mxCell>
        <mxCell id="v_qKELttMYH3f2mZd83b-61" value="40*40*128" style="text;html=1;strokeColor=none;fillColor=none;align=center;verticalAlign=middle;whiteSpace=wrap;rounded=0;strokeWidth=1;fontSize=12;" vertex="1" parent="1">
          <mxGeometry x="200" y="450" width="56" height="30" as="geometry" />
        </mxCell>
        <mxCell id="v_qKELttMYH3f2mZd83b-62" style="edgeStyle=orthogonalEdgeStyle;rounded=0;orthogonalLoop=1;jettySize=auto;html=1;entryX=0;entryY=0.5;entryDx=0;entryDy=0;" edge="1" parent="1">
          <mxGeometry relative="1" as="geometry">
            <mxPoint x="160" y="864" as="sourcePoint" />
            <mxPoint x="330" y="864.41" as="targetPoint" />
          </mxGeometry>
        </mxCell>
        <mxCell id="v_qKELttMYH3f2mZd83b-63" value="20*20*512" style="text;html=1;strokeColor=none;fillColor=none;align=center;verticalAlign=middle;whiteSpace=wrap;rounded=0;strokeWidth=1;fontSize=12;" vertex="1" parent="1">
          <mxGeometry x="200" y="270" width="60" height="30" as="geometry" />
        </mxCell>
      </root>
    </mxGraphModel>
  </diagram>
</mxfile>
